<?xml version="1.0" encoding="UTF-8"?>
<svg xmlns="http://www.w3.org/2000/svg" xmlns:xlink="http://www.w3.org/1999/xlink" width="24px" height="24px" viewBox="0 0 24 24" version="1.1">
<defs>
<clipPath id="clip1">
  <path d="M 0 17 L 8 17 L 8 24 L 0 24 Z M 0 17 "/>
</clipPath>
<clipPath id="clip2">
  <path d="M 5.246094 10.25 L 13.945312 18.945312 L 2.074219 23.199219 C 1.402344 23.4375 0.75 22.789062 0.992188 22.121094 Z M 5.246094 10.25 "/>
</clipPath>
<clipPath id="clip3">
  <path d="M 0 15 L 10 15 L 10 23 L 0 23 Z M 0 15 "/>
</clipPath>
<clipPath id="clip4">
  <path d="M 5.246094 10.25 L 13.945312 18.945312 L 2.074219 23.199219 C 1.402344 23.4375 0.75 22.789062 0.992188 22.121094 Z M 5.246094 10.25 "/>
</clipPath>
<clipPath id="clip5">
  <path d="M 1 11 L 14 11 L 14 21 L 1 21 Z M 1 11 "/>
</clipPath>
<clipPath id="clip6">
  <path d="M 5.246094 10.25 L 13.945312 18.945312 L 2.074219 23.199219 C 1.402344 23.4375 0.75 22.789062 0.992188 22.121094 Z M 5.246094 10.25 "/>
</clipPath>
<filter id="alpha" filterUnits="objectBoundingBox" x="0%" y="0%" width="100%" height="100%">
  <feColorMatrix type="matrix" in="SourceGraphic" values="0 0 0 0 1 0 0 0 0 1 0 0 0 0 1 0 0 0 1 0"/>
</filter>
<mask id="mask0">
  <g filter="url(#alpha)">
<rect x="0" y="0" width="24" height="24" style="fill:rgb(0%,0%,0%);fill-opacity:0.2;stroke:none;"/>
  </g>
</mask>
<linearGradient id="linear0" gradientUnits="userSpaceOnUse" x1="61.3064" y1="68.743" x2="5.3725" y2="121.181" gradientTransform="matrix(0.1875,0,0,0.1875,0,0)">
<stop offset="0.00350765" style="stop-color:rgb(55.294118%,43.137255%,38.823529%);stop-opacity:1;"/>
<stop offset="1" style="stop-color:rgb(42.745098%,29.803922%,25.490196%);stop-opacity:1;"/>
</linearGradient>
<clipPath id="clip7">
  <rect x="0" y="0" width="24" height="24"/>
</clipPath>
<g id="surface5" clip-path="url(#clip7)">
<path style=" stroke:none;fill-rule:nonzero;fill:url(#linear0);" d="M 6.359375 10.453125 C 7.660156 10.453125 9.703125 11.902344 11.054688 13.253906 C 12.15625 14.355469 13.027344 15.554688 13.5 16.621094 C 13.960938 17.652344 13.898438 18.238281 13.710938 18.429688 C 13.699219 18.4375 13.6875 18.449219 13.667969 18.464844 C 13.65625 18.472656 13.648438 18.476562 13.640625 18.484375 C 13.628906 18.492188 13.617188 18.496094 13.605469 18.503906 C 13.570312 18.519531 13.53125 18.535156 13.488281 18.542969 C 13.46875 18.546875 13.449219 18.554688 13.433594 18.5625 L 1.964844 22.667969 C 1.929688 22.679688 1.894531 22.6875 1.863281 22.6875 C 1.777344 22.6875 1.6875 22.640625 1.636719 22.5625 C 1.597656 22.511719 1.5625 22.421875 1.601562 22.308594 L 5.75 10.738281 C 5.78125 10.710938 5.8125 10.675781 5.839844 10.640625 C 5.855469 10.621094 5.867188 10.605469 5.875 10.59375 C 5.96875 10.5 6.132812 10.453125 6.359375 10.453125 M 6.359375 9.890625 C 5.988281 9.890625 5.6875 9.988281 5.476562 10.199219 C 5.441406 10.230469 5.414062 10.269531 5.386719 10.308594 L 5.324219 10.25 L 1.074219 22.117188 C 0.867188 22.691406 1.3125 23.25 1.863281 23.25 C 1.957031 23.25 2.054688 23.234375 2.152344 23.199219 L 13.617188 19.089844 C 13.699219 19.070312 13.777344 19.042969 13.847656 19.007812 L 14.023438 18.945312 L 13.996094 18.921875 C 14.035156 18.890625 14.074219 18.863281 14.109375 18.828125 C 15.023438 17.914062 13.832031 15.238281 11.449219 12.855469 C 9.613281 11.015625 7.601562 9.890625 6.359375 9.890625 Z M 6.359375 9.890625 "/>
</g>
<mask id="mask1">
  <g filter="url(#alpha)">
<rect x="0" y="0" width="24" height="24" style="fill:rgb(0%,0%,0%);fill-opacity:0.2;stroke:none;"/>
  </g>
</mask>
<clipPath id="clip8">
  <rect x="0" y="0" width="24" height="24"/>
</clipPath>
<g id="surface8" clip-path="url(#clip8)">
<path style=" stroke:none;fill-rule:nonzero;fill:rgb(25.882353%,25.882353%,25.882353%);fill-opacity:1;" d="M 6.292969 10.363281 C 7.621094 10.363281 9.707031 11.84375 11.082031 13.21875 C 13.523438 15.660156 14.316406 17.984375 13.789062 18.507812 C 13.6875 18.609375 13.519531 18.65625 13.289062 18.65625 C 11.960938 18.65625 9.875 17.179688 8.5 15.800781 C 6.0625 13.363281 5.269531 11.039062 5.796875 10.515625 C 5.894531 10.414062 6.0625 10.363281 6.292969 10.363281 M 6.292969 9.800781 C 5.917969 9.800781 5.613281 9.902344 5.398438 10.117188 C 4.464844 11.050781 5.675781 13.773438 8.105469 16.203125 C 9.976562 18.074219 12.023438 19.222656 13.289062 19.222656 C 13.667969 19.222656 13.972656 19.121094 14.1875 18.90625 C 15.117188 17.976562 13.90625 15.25 11.480469 12.824219 C 9.609375 10.953125 7.5625 9.800781 6.292969 9.800781 Z M 6.292969 9.800781 "/>
</g>
</defs>
<g id="surface1">
<path style=" stroke:none;fill-rule:nonzero;fill:rgb(100%,75.686275%,2.745098%);fill-opacity:1;" d="M 5.246094 10.25 L 13.945312 18.945312 L 2.074219 23.199219 C 1.402344 23.4375 0.75 22.789062 0.992188 22.121094 Z M 5.246094 10.25 "/>
<g clip-path="url(#clip1)" clip-rule="nonzero">
<g clip-path="url(#clip2)" clip-rule="nonzero">
<path style=" stroke:none;fill-rule:nonzero;fill:rgb(100%,56.078431%,0%);fill-opacity:1;" d="M 7.386719 23.238281 C 5.800781 22.90625 4.367188 22.503906 3.019531 21.5625 C 1.757812 20.675781 0.460938 19.351562 -0.0429688 17.863281 C -0.429688 16.707031 -2.171875 17.527344 -1.535156 18.496094 C -0.5 20.070312 0.558594 21.453125 2.164062 22.492188 C 3.625 23.4375 5.503906 24.164062 7.269531 24.121094 C 7.753906 24.105469 7.898438 23.347656 7.386719 23.238281 Z M 7.386719 23.238281 "/>
</g>
</g>
<g clip-path="url(#clip3)" clip-rule="nonzero">
<g clip-path="url(#clip4)" clip-rule="nonzero">
<path style=" stroke:none;fill-rule:nonzero;fill:rgb(100%,56.078431%,0%);fill-opacity:1;" d="M 9.574219 21.320312 C 7.988281 20.988281 6.558594 20.585938 5.207031 19.640625 C 3.945312 18.757812 2.648438 17.433594 2.148438 15.945312 C 1.757812 14.789062 0.015625 15.609375 0.652344 16.578125 C 1.6875 18.152344 2.746094 19.535156 4.351562 20.574219 C 5.8125 21.519531 7.691406 22.246094 9.457031 22.203125 C 9.945312 22.1875 10.085938 21.425781 9.574219 21.320312 Z M 9.574219 21.320312 "/>
</g>
</g>
<g clip-path="url(#clip5)" clip-rule="nonzero">
<g clip-path="url(#clip6)" clip-rule="nonzero">
<path style=" stroke:none;fill-rule:nonzero;fill:rgb(100%,56.078431%,0%);fill-opacity:1;" d="M 14.382812 20 C 11.953125 19.53125 9.78125 18.925781 7.71875 17.492188 C 5.773438 16.144531 3.90625 14.175781 3.054688 11.933594 C 2.628906 10.8125 0.964844 11.554688 1.5625 12.5625 C 2.949219 14.902344 4.5625 16.910156 6.855469 18.421875 C 8.960938 19.808594 11.703125 20.925781 14.265625 20.878906 C 14.75 20.871094 14.898438 20.097656 14.382812 20 Z M 14.382812 20 "/>
</g>
</g>
<use xlink:href="#surface5" mask="url(#mask0)"/>
<path style=" stroke:none;fill-rule:nonzero;fill:rgb(47.45098%,33.333333%,28.235294%);fill-opacity:1;" d="M 11.480469 12.824219 C 9.054688 10.398438 6.328125 9.183594 5.394531 10.117188 C 4.464844 11.050781 5.675781 13.773438 8.101562 16.203125 C 10.53125 18.628906 13.253906 19.839844 14.1875 18.90625 C 15.121094 17.976562 13.90625 15.25 11.480469 12.824219 Z M 11.480469 12.824219 "/>
<use xlink:href="#surface8" mask="url(#mask1)"/>
<path style=" stroke:none;fill-rule:nonzero;fill:rgb(11.764706%,53.333333%,89.803922%);fill-opacity:1;" d="M 19.5 5.796875 L 18.722656 4.6875 L 20.433594 3.488281 L 20.972656 4.261719 Z M 19.5 5.796875 "/>
<path style=" stroke:none;fill-rule:nonzero;fill:rgb(100%,34.117647%,13.333333%);fill-opacity:1;" d="M 2.203125 3.140625 L 3.464844 2.90625 L 3.824219 4.847656 L 2.945312 5.011719 Z M 2.203125 3.140625 "/>
<path style=" stroke:none;fill-rule:nonzero;fill:rgb(11.764706%,53.333333%,89.803922%);fill-opacity:1;" d="M 11.46875 2.496094 L 10.273438 2.808594 L 9.792969 0.96875 L 10.621094 0.75 Z M 11.46875 2.496094 "/>
<path style=" stroke:none;fill-rule:nonzero;fill:rgb(100%,34.117647%,13.333333%);fill-opacity:1;" d="M 11.40625 17.898438 C 11.988281 16.402344 13.019531 15.609375 14.691406 15.589844 C 16.394531 15.570312 19.171875 16.59375 19.304688 18.605469 C 19.304688 18.296875 19.304688 17.992188 19.308594 17.683594 C 19.175781 18.417969 18.417969 18.722656 17.726562 18.5625 C 16.996094 18.398438 16.515625 17.78125 16.421875 17.0625 C 16.421875 17.367188 16.421875 17.671875 16.425781 17.980469 C 16.5 16.3125 18.292969 15.769531 19.699219 15.792969 C 21.171875 15.8125 22.21875 16.800781 23.023438 17.9375 C 22.878906 17.734375 23.175781 17.210938 23.023438 17 C 22.179688 15.808594 21.085938 14.824219 19.542969 14.851562 C 18.289062 14.875 16.648438 15.355469 16.433594 16.792969 C 16.359375 17.285156 16.34375 18.019531 16.53125 18.484375 C 16.910156 19.4375 18.800781 20.140625 19.265625 18.855469 C 19.929688 17.007812 18.066406 15.46875 16.523438 14.957031 C 15.367188 14.578125 14.042969 14.5 12.921875 15.039062 C 12.085938 15.4375 11.722656 16.132812 11.402344 16.957031 C 11.296875 17.234375 11.507812 17.628906 11.40625 17.898438 Z M 11.40625 17.898438 "/>
<path style=" stroke:none;fill-rule:nonzero;fill:rgb(11.764706%,53.333333%,89.803922%);fill-opacity:1;" d="M 13.34375 12.230469 C 14 12.578125 14.746094 13.0625 15.488281 12.664062 C 15.917969 12.433594 16.140625 11.996094 16.320312 11.5625 C 16.738281 10.578125 16.929688 10.015625 18.074219 10.542969 C 18.746094 10.847656 20.296875 11.867188 20.582031 10.5625 C 20.726562 9.886719 20.488281 9.167969 20.453125 8.5 C 20.453125 8.808594 20.453125 9.113281 20.449219 9.421875 C 20.621094 8.246094 22.335938 8.652344 23.058594 8.964844 C 22.949219 8.917969 23.179688 8.082031 23.058594 8.027344 C 22.277344 7.6875 20.597656 7.316406 20.449219 8.546875 C 20.375 9.164062 20.527344 9.765625 20.589844 10.371094 C 20.589844 10.066406 20.589844 9.757812 20.589844 9.453125 C 20.484375 11.582031 17.734375 8.839844 16.886719 9.480469 C 16.417969 9.835938 16.363281 10.707031 16.046875 11.183594 C 15.332031 12.257812 14.285156 11.796875 13.339844 11.292969 C 13.464844 11.355469 13.207031 12.15625 13.34375 12.230469 Z M 13.34375 12.230469 "/>
<path style=" stroke:none;fill-rule:nonzero;fill:rgb(11.764706%,53.333333%,89.803922%);fill-opacity:1;" d="M 6.148438 11.589844 C 7.394531 11.453125 7.648438 10.191406 7.453125 9.144531 C 7.175781 7.640625 4.96875 7.507812 4.828125 6.042969 C 4.828125 6.351562 4.828125 6.65625 4.832031 6.964844 C 4.875 6.175781 5.488281 5.617188 6.132812 5.25 C 6.726562 4.917969 7.058594 4.507812 7.136719 3.789062 C 7.25 2.757812 6.910156 2.039062 5.964844 1.503906 C 6.09375 1.578125 5.824219 2.363281 5.964844 2.441406 C 6.4375 2.710938 7.078125 3.207031 7.136719 3.789062 C 7.136719 3.472656 7.136719 3.164062 7.136719 2.851562 C 6.929688 4.039062 6.304688 4.023438 5.539062 4.707031 C 4.960938 5.222656 4.828125 5.789062 4.828125 6.511719 C 4.828125 7.203125 4.992188 7.644531 5.574219 8.09375 C 6.375 8.710938 7.28125 9.09375 7.472656 10.199219 C 7.472656 9.890625 7.472656 9.585938 7.472656 9.28125 C 7.4375 10.054688 6.898438 10.570312 6.144531 10.652344 C 6.105469 10.65625 6.175781 11.585938 6.148438 11.589844 Z M 6.148438 11.589844 "/>
<path style=" stroke:none;fill-rule:nonzero;fill:rgb(100%,34.117647%,13.333333%);fill-opacity:1;" d="M 8.199219 15.039062 C 9.191406 15.464844 10.628906 14.5 10.902344 13.546875 C 11.039062 13.070312 11.046875 12.386719 10.984375 11.894531 C 10.894531 11.199219 10.3125 10.753906 10.058594 10.128906 C 9.851562 9.625 9.972656 9.195312 10.265625 8.65625 C 10.734375 7.78125 12.832031 6.460938 13.171875 8.15625 C 13.171875 7.863281 13.171875 7.570312 13.171875 7.28125 C 13.164062 7.816406 12.84375 8.234375 12.273438 8.121094 C 11.71875 8.015625 11.476562 7.507812 11.402344 7.003906 C 11.402344 7.269531 11.402344 7.539062 11.40625 7.804688 C 11.4375 5.523438 13.910156 4.675781 15.789062 4.554688 C 15.8125 4.554688 15.773438 3.617188 15.789062 3.617188 C 13.394531 3.769531 11.398438 4.890625 11.398438 7.472656 C 11.398438 8.164062 11.589844 9.167969 12.515625 9.078125 C 13.273438 9.003906 13.199219 8.121094 13.179688 7.558594 C 13.152344 6.78125 12.625 6.246094 11.773438 6.453125 C 10.800781 6.695312 10.144531 7.644531 9.949219 8.582031 C 9.847656 9.082031 9.859375 9.628906 9.886719 10.136719 C 9.933594 11.21875 10.816406 11.828125 10.984375 12.832031 C 10.984375 12.523438 10.984375 12.21875 10.980469 11.910156 C 10.925781 12.710938 10.660156 13.292969 9.960938 13.761719 C 9.484375 14.078125 8.757812 14.335938 8.199219 14.097656 C 8.304688 14.144531 8.078125 14.988281 8.199219 15.039062 Z M 8.199219 15.039062 "/>
</g>
</svg>
